<?xml version="1.0" standalone="no"?><!DOCTYPE svg PUBLIC "-//W3C//DTD SVG 1.1//EN" "http://www.w3.org/Graphics/SVG/1.1/DTD/svg11.dtd"><svg t="1560327286264" class="icon" style="" viewBox="0 0 1024 1024" version="1.1" xmlns="http://www.w3.org/2000/svg" p-id="2242" xmlns:xlink="http://www.w3.org/1999/xlink" width="200" height="200"><defs><style type="text/css"></style></defs><path d="M375.466667 757.76c6.826667 30.72 13.653333 64.853333 20.48 95.573333 20.48-13.653333 61.44-34.133333 116.053333-34.133333s95.573333 20.48 116.053333 34.133333c10.24-30.72 17.066667-64.853333 20.48-95.573333-13.653333-10.24-68.266667-40.96-136.533333-40.96s-122.88 30.72-136.533333 40.96z" fill="" p-id="2243"></path><path d="M512 580.266667c-85.333333 0-150.186667 51.2-150.186667 51.2s-3.413333 0-3.413333 3.413333c0 20.48 3.413333 51.2 10.24 88.746667 27.306667-17.066667 78.506667-40.96 143.36-40.96s116.053333 23.893333 143.36 40.96c6.826667-34.133333 6.826667-64.853333 10.24-88.746667 0 0-3.413333 0-3.413333-3.413333 0 0-64.853333-51.2-150.186667-51.2zM406.186667 890.88c23.893333 75.093333 58.026667 133.12 105.813333 133.12s81.92-61.44 105.813333-133.12C614.4 887.466667 573.44 853.333333 512 853.333333s-102.4 34.133333-105.813333 37.546667z" fill="" p-id="2244"></path><path d="M938.666667 385.706667c6.826667-3.413333 13.653333-6.826667 20.48-13.653334 30.72-23.893333 47.786667-58.026667 47.786666-98.986666 0-44.373333-13.653333-75.093333-44.373333-92.16-98.986667-54.613333-324.266667 81.92-351.573333 98.986666-6.826667-6.826667-13.653333-17.066667-23.893334-20.48 17.066667-13.653333 44.373333-37.546667 44.373334-75.093333 0-27.306667-13.653333-51.2-30.72-75.093333 3.413333-17.066667 27.306667-75.093333 81.92-75.093334 10.24 0 17.066667-6.826667 17.066666-17.066666S692.906667 0 682.666667 0c-61.44 0-95.573333 47.786667-112.64 88.746667-17.066667-13.653333-37.546667-20.48-58.026667-20.48s-40.96 6.826667-58.026667 20.48C436.906667 47.786667 402.773333 0 341.333333 0c-10.24 0-17.066667 6.826667-17.066666 17.066667s6.826667 17.066667 17.066666 17.066666c54.613333 0 78.506667 58.026667 81.92 78.506667-20.48 20.48-30.72 47.786667-30.72 75.093333 0 37.546667 27.306667 61.44 44.373334 75.093334-10.24 6.826667-17.066667 13.653333-23.893334 20.48-27.306667-17.066667-252.586667-153.6-351.573333-98.986667C30.72 197.973333 17.066667 232.106667 17.066667 276.48c0 44.373333 17.066667 78.506667 47.786666 102.4 6.826667 6.826667 17.066667 10.24 27.306667 13.653333-13.653333 10.24-27.306667 23.893333-34.133333 44.373334-6.826667 20.48-3.413333 40.96 6.826666 61.44 20.48 34.133333 58.026667 47.786667 102.4 47.786666 30.72 0 61.44-6.826667 95.573334-13.653333l-68.266667 88.746667c-3.413333 3.413333-3.413333 6.826667-3.413333 10.24v112.64l-30.72 47.786666c-6.826667 6.826667-3.413333 17.066667 3.413333 23.893334 0 3.413333 3.413333 3.413333 6.826667 3.413333 6.826667 0 10.24-3.413333 13.653333-6.826667l34.133333-51.2c3.413333-3.413333 3.413333-6.826667 3.413334-10.24v-112.64L307.2 522.24c0-3.413333 3.413333-3.413333 3.413333-6.826667 6.826667-3.413333 13.653333-3.413333 20.48-6.826666l-40.96 153.6V829.44l-30.72 47.786667c-6.826667 6.826667-3.413333 17.066667 3.413334 23.893333 3.413333 3.413333 6.826667 3.413333 10.24 3.413333 6.826667 0 10.24-3.413333 13.653333-6.826666l34.133333-51.2c3.413333-3.413333 3.413333-6.826667 3.413334-10.24v-167.253334l47.786666-177.493333c27.306667-10.24 44.373333-20.48 54.613334-27.306667h3.413333c3.413333 0 3.413333 0 3.413333-3.413333 3.413333 6.826667 10.24 17.066667 13.653334 23.893333-37.546667 13.653333-81.92 47.786667-88.746667 105.813334 30.72-17.066667 85.333333-44.373333 153.6-44.373334s122.88 27.306667 150.186667 47.786667c-10.24-58.026667-54.613333-92.16-88.746667-105.813333 3.413333-6.826667 10.24-17.066667 17.066667-23.893334 0 0 0 3.413333 3.413333 3.413334s34.133333 17.066667 75.093333 34.133333v3.413333l51.2 167.253334-17.066666 167.253333c0 3.413333 0 10.24 3.413333 13.653333l34.133333 34.133334h10.24c3.413333 0 10.24 0 13.653334-3.413334 6.826667-6.826667 6.826667-17.066667 0-23.893333l-27.306667-27.306667 17.066667-163.84v-6.826666L709.973333 512c3.413333 0 6.826667 3.413333 13.653334 3.413333 0 3.413333 0 6.826667 3.413333 6.826667l81.92 116.053333V750.933333c0 3.413333 0 6.826667 3.413333 10.24l34.133334 51.2c3.413333 3.413333 10.24 6.826667 13.653333 6.826667 3.413333 0 6.826667 0 10.24-3.413333 6.826667-6.826667 10.24-17.066667 3.413333-23.893334l-30.72-47.786666v-112.64c0-3.413333 0-6.826667-3.413333-10.24l-64.853333-92.16c37.546667 10.24 75.093333 17.066667 105.813333 17.066666 47.786667 0 78.506667-13.653333 95.573333-44.373333 10.24-20.48 13.653333-37.546667 6.826667-58.026667-10.24-23.893333-30.72-44.373333-44.373333-58.026666z" fill="" p-id="2245"></path></svg>